<?xml version="1.0" encoding="UTF-8"?><svg id="Layer_1" xmlns="http://www.w3.org/2000/svg" viewBox="0 0 347.28 95.95"><defs><style>.cls-1{fill:#221f20;font-family:Inter-Black, Inter;font-size:49.98px;font-variation-settings:'opsz' 14, 'wght' 900;font-weight:800;}.cls-2{letter-spacing:-.08em;}.cls-3{letter-spacing:-.01em;}.cls-4{letter-spacing:0em;}.cls-5{letter-spacing:0em;}.cls-6{letter-spacing:0em;}</style></defs><path d="M16.98,54.03c-6.39-3.74-11.15-8.35-13.67-14.89C-3.58,21.29,8.44,2.42,27.73,1.72c16.25-.59,32.54-.12,48.81-.19,2.47-.01,3.5.87,3.46,3.38-.1,7.31.23,14.65-.16,21.94-.46,8.54-5.67,13.36-14.28,15.46,1.59,1.13,2.77,1.96,3.95,2.79,9.64,6.75,13.95,18.79,10.74,30.04-3.25,11.41-13.43,19.6-25.43,19.79-16.12.25-32.24.02-48.36.13-2.97.02-3.9-1.06-3.82-3.93.16-5.52.04-11.05.05-16.57.02-12.16,2.52-15.9,14.29-20.53ZM18.75,54.49c5.74,0,10.33.1,14.91-.04,2.55-.08,3.5.92,3.39,3.41-.12,2.68-.02,5.37-.02,8.06,0,4.37,0,8.75,0,13.12.44.09.87.18,1.31.27,8.34-12.16,16.69-24.32,25.6-37.31-5.33,0-9.36-.24-13.34.07-3.83.3-5.43-.76-5.12-4.88.35-4.75.09-9.55.09-14.33,0-1.77,0-3.54,0-5.31-.44-.05-.88-.11-1.32-.16-8.25,12.01-16.5,24.02-25.49,37.11Z"/><text class="cls-1" transform="translate(92.23 39.58)"><tspan class="cls-4" x="0" y="0">S</tspan><tspan x="32.8" y="0">TE</tspan><tspan class="cls-2" x="97.74" y="0">W</tspan><tspan x="147.57" y="0">ART</tspan></text><text class="cls-1" transform="translate(91.63 91.3)"><tspan class="cls-6" x="0" y="0">SE</tspan><tspan class="cls-3" x="64.71" y="0">R</tspan><tspan class="cls-5" x="97.37" y="0">VICES</tspan></text></svg>