<?xml version="1.0" encoding="UTF-8"?><svg id="Layer_1" xmlns="http://www.w3.org/2000/svg" viewBox="0 0 300 300"><path d="M274.67,149.09c.68,69.93-57.39,126.78-128.44,125.01-61.03-1.52-122.82-52.57-120.86-128.88,1.75-68.34,59.8-121.7,128.78-119.26,66.35,2.35,120.95,55.7,120.53,123.14ZM146.06,35.31c-36.86-.85-87.43,23.6-105.52,75.92-16.45,47.58-1.35,104.11,47.04,135.57,43.93,28.56,102.8,23.37,141.55-12.7,40.56-37.75,46.86-96.99,22.6-140.41-23.83-42.65-69.99-59.67-97.1-58.1v43.58c2.67,1.28,6.1,1.8,7.05,3.62,1.52,2.9,3.5,5.88,4.3,8.92,1.52,5.74,1.77,11.82,2.49,17.33h-36.5c.39-2.95.53-6.32,1.35-9.51,1.01-3.95-.81-8.96,4.06-11.59.29-.16.34-1.02.27-1.52-.56-3.52,1.71-4.81,4.44-5.73,1.29-.43,2.61-.78,3.96-1.18v-44.19Z"/><path d="M226.84,162.9c-2.43-1.77-4.07-3.34-6.01-4.32-7.65-3.85-16.02-5-24.39-5.96-21-2.4-42.1-2.87-63.16-1.8-14.74.75-29.45,2.61-44.1,4.56-4.33.58-8.57,2.82-12.54,4.88-2.98,1.54-2.91,3.62.23,4.81,5.91,2.25,11.96,4.43,18.16,5.54,9.23,1.65,18.63,2.31,27.95,3.46,2.13.26,5.31-.12,5.15,3.01-.16,3.21-3.27,2.18-5.2,2-13.52-1.3-27.12-2.26-40.18-6.39-3.26-1.03-6.51-2.37-9.42-4.14-5.19-3.17-5.09-7.92-.39-11.89,1.96-1.66,4.01-3.74,4.91-6.05,8.15-20.98,23.91-32.74,45.45-36.63,20.81-3.76,41.81-3.72,62.34,1.97,17.25,4.79,29.31,16.03,36.29,32.56,1.48,3.5,3.1,6.63,6.18,9.19,4.44,3.68,3.88,7.89-1.02,11.14-6.27,4.17-13.52,5.76-20.74,6.85-10.45,1.56-21.01,2.41-31.53,3.54-1.69.18-3.56.15-3.83-1.95-.31-2.39,1.79-2.72,3.48-2.89,8.17-.83,16.42-1.1,24.5-2.45,7.71-1.29,15.26-3.58,22.82-5.67,1.61-.45,2.94-1.91,5.07-3.37Z"/><path d="M127.38,154.34h45.53c-.18,12.72-9.66,21.95-22.36,22.15-12.7.2-22.68-9.12-23.18-22.15Z"/><path d="M147.99,204.55c0-3.88-.19-7.77.13-11.62.08-.95,1.79-1.77,2.76-2.66.73,1.1,2.08,2.2,2.09,3.32.09,6.78-.16,13.57-.2,20.35,0,1.69.28,3.38-2.08,3.59-2.41.22-2.88-1.32-2.86-3.28.02-3.23,0-6.47,0-9.7.05,0,.1,0,.15,0Z"/><path d="M178.65,206.88c-.55.45-1.24,1.46-1.93,1.46-1.01,0-2.44-.42-2.97-1.17-1.87-2.62-3.45-5.44-5.09-8.21-1.64-2.77-3.41-5.49-4.74-8.41-.41-.9.41-2.36.66-3.57,1.12.25,2.85.12,3.27.8,3.64,5.82,7.05,11.79,10.51,17.72.15.26.14.62.3,1.37Z"/><path d="M136.16,189.88c-.21.5-.37,1.02-.63,1.49-2.95,5.26-5.83,10.58-8.97,15.72-.51.84-2.21.95-3.36,1.4-.29-1.29-1.23-2.9-.78-3.8,2.73-5.37,5.71-10.62,8.81-15.79.48-.8,2.03-1.3,3.1-1.32.96-.02,1.93.8,2.9,1.25-.36.35-.71.7-1.07,1.04Z"/></svg>