<?xml version="1.0" encoding="UTF-8"?><svg id="Layer_1" xmlns="http://www.w3.org/2000/svg" viewBox="0 0 300 300"><path d="M73.73,168.16c-20.03-11.72-34.94-26.17-42.84-46.65C9.33,65.55,46.99,6.46,107.42,4.25c50.91-1.86,101.94-.37,152.92-.6,7.74-.04,10.95,2.71,10.84,10.61-.32,22.92.73,45.89-.51,68.75-1.45,26.77-17.77,41.87-44.75,48.44,4.99,3.53,8.67,6.15,12.37,8.74,30.19,21.14,43.7,58.89,33.66,94.11-10.18,35.74-42.07,61.41-79.66,61.99-50.5.78-101.02.06-151.52.42-9.31.07-12.23-3.33-11.96-12.31.51-17.29.13-34.61.15-51.92.05-38.1,7.89-49.8,44.77-64.31ZM79.28,169.6c17.98,0,32.36.31,46.72-.12,7.98-.24,10.97,2.9,10.63,10.67-.37,8.4-.08,16.84-.08,25.26,0,13.7,0,27.41,0,41.11,1.37.29,2.73.57,4.1.86,26.14-38.1,52.29-76.21,80.21-116.9-16.69,0-29.31-.76-41.8.22-11.99.94-17.01-2.39-16.05-15.3,1.11-14.89.27-29.92.28-44.89,0-5.55,0-11.1,0-16.65-1.38-.17-2.77-.34-4.15-.5-25.84,37.62-51.69,75.25-79.85,116.26Z"/></svg>