<?xml version="1.0" encoding="UTF-8"?><svg id="Layer_1" xmlns="http://www.w3.org/2000/svg" viewBox="0 0 1101.68 700.43"><defs><style>.cls-1{fill:#231f20;}.cls-2{fill:#fff;}</style></defs><path class="cls-2" d="M1101.68,700.43h-270v-207h270v207ZM968.66,693.44c36.17,0,72.34,0,108.52,0,9.83,0,16.51-6.69,16.51-16.46,0-51.69-.11-103.38.11-155.06.04-8.37-6.67-16.61-16.54-16.6-72.43.08-144.86.04-217.28.05-9.81,0-16.52,6.65-16.53,16.46-.03,51.69-.02,103.38.01,155.06,0,1.81.14,3.7.66,5.42,2.09,6.87,8.19,11.12,15.76,11.13,36.26.01,72.51,0,108.77,0Z"/><path d="M968.66,693.44c-36.26,0-72.51,0-108.77,0-7.58,0-13.68-4.25-15.76-11.13-.52-1.72-.66-3.61-.66-5.42-.03-51.69-.04-103.38-.01-155.06,0-9.81,6.72-16.46,16.53-16.46,72.43,0,144.86.03,217.28-.05,9.86-.01,16.57,8.23,16.54,16.6-.22,51.69-.11,103.38-.11,155.06,0,9.77-6.69,16.46-16.51,16.46-36.17.01-72.34,0-108.52,0ZM955.13,602.7c-6.57,2.58-7.96,4.67-7.97,11.45,0,3.08.06,6.17-.03,9.25-.05,1.6.47,2.2,2.13,2.19,8.99-.06,17.99.06,26.98-.07,6.69-.1,12.37-4.67,14.19-11.04,1.79-6.27-.62-12.99-6-16.76-.66-.46-1.31-.93-2.2-1.56,4.8-1.17,7.71-3.86,7.97-8.63.22-4.07.03-8.16.09-12.24.02-1.41-.55-1.9-1.93-1.89-9.08.04-18.17-.22-27.23.11-10.76.39-17.47,10.92-13.63,20.88,1.41,3.65,4.06,6.22,7.63,8.31Z"/><path d="M48.97,164.86c-20.03-11.72-34.94-26.17-42.84-46.65C-15.43,62.25,22.23,3.16,82.66.95c50.91-1.86,101.94-.37,152.92-.6,7.74-.04,10.95,2.71,10.84,10.61-.32,22.92.73,45.89-.51,68.75-1.45,26.77-17.77,41.87-44.75,48.44,4.99,3.53,8.67,6.15,12.37,8.74,30.19,21.14,43.7,58.89,33.66,94.11-10.18,35.74-42.07,61.41-79.66,61.99-50.5.78-101.02.06-151.52.42-9.31.07-12.23-3.33-11.96-12.31.51-17.29.13-34.61.15-51.92.05-38.1,7.89-49.8,44.77-64.31ZM54.52,166.3c17.98,0,32.36.31,46.72-.12,7.98-.24,10.97,2.9,10.63,10.67-.37,8.4-.08,16.84-.08,25.26,0,13.7,0,27.41,0,41.11,1.37.29,2.73.57,4.1.86,26.14-38.1,52.29-76.21,80.21-116.9-16.69,0-29.31-.76-41.8.22-11.99.94-17.01-2.39-16.05-15.3,1.11-14.89.27-29.92.28-44.89,0-5.55,0-11.1,0-16.65-1.38-.17-2.77-.34-4.15-.5-25.84,37.62-51.69,75.25-79.85,116.26Z"/><path d="M956.11,602.96c5.02-7.3,9.62-14,14.22-20.7.25.03.49.06.74.09,0,.99,0,1.98,0,2.97,0,2.67.15,5.34-.05,7.99-.17,2.3.72,2.89,2.86,2.73,2.22-.17,4.47-.04,7.44-.04-4.97,7.25-9.63,14.03-14.28,20.82-.24-.05-.49-.1-.73-.15,0-2.44,0-4.88,0-7.32,0-1.5-.05-3,.01-4.5.06-1.38-.47-1.94-1.89-1.9-2.56.08-5.12.02-8.32.02Z"/><path d="M472.54,102.96c-6.39-3.74-11.15-8.35-13.67-14.89-6.88-17.86,5.14-36.72,24.43-37.43,16.25-.59,32.54-.12,48.81-.19,2.47-.01,3.5.87,3.46,3.38-.1,7.31.23,14.65-.16,21.94-.46,8.54-5.67,13.36-14.28,15.46,1.59,1.13,2.77,1.96,3.95,2.79,9.64,6.75,13.95,18.79,10.74,30.04-3.25,11.41-13.43,19.6-25.43,19.79-16.12.25-32.24.02-48.36.13-2.97.02-3.9-1.06-3.82-3.93.16-5.52.04-11.05.05-16.57.02-12.16,2.52-15.9,14.29-20.53ZM474.31,103.42c5.74,0,10.33.1,14.91-.04,2.55-.08,3.5.92,3.39,3.41-.12,2.68-.02,5.37-.02,8.06,0,4.37,0,8.75,0,13.12.44.09.87.18,1.31.27,8.34-12.16,16.69-24.32,25.6-37.31-5.33,0-9.36-.24-13.34.07-3.83.3-5.43-.76-5.12-4.88.35-4.75.09-9.55.09-14.33,0-1.77,0-3.54,0-5.31-.44-.05-.88-.11-1.32-.16-8.25,12.01-16.5,24.02-25.49,37.11Z"/><path class="cls-1" d="M564.92,88.94c-3.16,0-5.91-.47-8.26-1.4-2.35-.94-4.18-2.38-5.48-4.33-1.3-1.95-1.96-4.45-1.98-7.49h9.37c.07,1.11.35,2.04.84,2.81.5.76,1.2,1.34,2.1,1.73.9.39,1.99.59,3.26.59,1.06,0,1.94-.13,2.66-.39.72-.26,1.26-.62,1.62-1.09.37-.46.55-1,.55-1.6,0-.55-.17-1.04-.52-1.45s-.92-.79-1.72-1.13c-.8-.34-1.87-.65-3.22-.93l-3.66-.78c-3.21-.68-5.73-1.85-7.58-3.5s-2.77-3.9-2.77-6.75c0-2.31.63-4.33,1.88-6.06,1.25-1.73,2.98-3.08,5.19-4.05,2.2-.97,4.75-1.45,7.63-1.45s5.49.49,7.63,1.48c2.14.98,3.79,2.37,4.95,4.15s1.75,3.86,1.77,6.23h-9.47c-.08-1.19-.52-2.11-1.3-2.77-.79-.66-1.98-.99-3.58-.99-1.01,0-1.84.12-2.49.35-.65.24-1.13.57-1.44.99-.31.42-.46.9-.46,1.44,0,.57.17,1.07.5,1.5.33.43.86.81,1.59,1.12s1.66.6,2.79.84l2.98.63c2,.42,3.72.98,5.16,1.68,1.44.7,2.62,1.52,3.54,2.45.92.94,1.59,1.99,2.03,3.16.43,1.17.65,2.45.65,3.83,0,2.39-.59,4.42-1.77,6.09-1.18,1.67-2.87,2.93-5.06,3.79-2.2.86-4.83,1.29-7.91,1.29Z"/><path class="cls-1" d="M581.96,60.1v-7.96h31.58v7.96h-10.86v28.41h-9.86v-28.41h-10.86Z"/><path class="cls-1" d="M617.24,88.5v-36.36h26.21v7.96h-16.35v6.15h14.98v7.76h-14.98v6.54h16.25v7.96h-26.11Z"/><path class="cls-1" d="M656.29,88.5l-9.64-36.36h11.03l2.9,14.1c.37,1.77.71,3.71,1,5.82s.58,4.21.87,6.31c.28,2.1.57,4.04.87,5.83h-1.95c.34-1.79.67-3.73.98-5.83.31-2.1.63-4.2.96-6.31.33-2.11.7-4.05,1.11-5.82l3.22-14.1h9.86l3.22,14.1c.41,1.77.78,3.71,1.11,5.82s.66,4.21.96,6.31c.31,2.1.63,4.04.98,5.83h-1.98c.31-1.79.6-3.73.88-5.83s.57-4.2.87-6.31c.3-2.11.63-4.05.99-5.82l2.93-14.1h11.03l-9.64,36.36h-11.15l-3.61-14.81c-.62-2.55-1.11-5.31-1.48-8.27-.37-2.96-.81-5.81-1.33-8.54h2.59c-.62,2.73-1.08,5.57-1.38,8.52-.3,2.94-.77,5.71-1.4,8.3l-3.64,14.81h-11.15Z"/><path class="cls-1" d="M696.48,88.5l11.79-36.36h13.47l12.23,36.36h-11.18l-4.22-14.1c-.91-3.06-1.77-6.24-2.56-9.53-.8-3.29-1.55-6.57-2.27-9.82h2.25c-.68,3.25-1.38,6.53-2.07,9.82-.7,3.29-1.49,6.47-2.37,9.53l-4.03,14.1h-11.03ZM705.22,81.52v-7.37h20.01v7.37h-20.01Z"/><path class="cls-1" d="M737.43,88.5v-36.36h15.67c2.7,0,5.06.49,7.09,1.48,2.03.98,3.6,2.4,4.73,4.25,1.13,1.85,1.7,4.06,1.7,6.63s-.58,4.8-1.73,6.59c-1.16,1.79-2.77,3.14-4.86,4.05-2.08.91-4.51,1.37-7.27,1.37h-9.37v-7.66h7.37c1.17,0,2.17-.15,3-.44.83-.29,1.46-.76,1.9-1.39.44-.63.66-1.47.66-2.51s-.22-1.89-.66-2.54c-.44-.65-1.07-1.13-1.9-1.44-.83-.31-1.83-.46-3-.46h-3.46v28.45h-9.86ZM757.1,88.5l-8.88-16.69h10.49l9.13,16.69h-10.74Z"/><path class="cls-1" d="M769.84,60.1v-7.96h31.58v7.96h-10.86v28.41h-9.86v-28.41h-10.86Z"/><path class="cls-1" d="M564.32,140.66c-3.16,0-5.91-.47-8.26-1.4s-4.18-2.38-5.48-4.33c-1.3-1.95-1.96-4.45-1.98-7.49h9.37c.06,1.11.35,2.04.84,2.81s1.2,1.34,2.1,1.73c.9.39,1.99.59,3.26.59,1.06,0,1.94-.13,2.66-.39.72-.26,1.26-.62,1.62-1.09.37-.46.55-1,.55-1.6,0-.55-.17-1.04-.52-1.45-.35-.42-.92-.79-1.72-1.13s-1.87-.65-3.22-.93l-3.66-.78c-3.21-.68-5.73-1.85-7.58-3.5s-2.77-3.9-2.77-6.75c0-2.31.63-4.33,1.88-6.06,1.25-1.73,2.98-3.08,5.19-4.05,2.2-.97,4.75-1.45,7.63-1.45s5.49.49,7.63,1.48,3.79,2.37,4.95,4.15,1.75,3.86,1.77,6.23h-9.47c-.08-1.19-.52-2.11-1.31-2.77-.79-.66-1.98-.99-3.58-.99-1.01,0-1.84.12-2.49.35-.65.24-1.13.57-1.44.99-.31.42-.46.9-.46,1.44,0,.57.17,1.07.5,1.5.33.43.86.81,1.59,1.12.72.32,1.66.6,2.79.84l2.98.63c2,.42,3.72.98,5.16,1.68,1.44.7,2.62,1.52,3.54,2.45s1.59,1.99,2.03,3.16.65,2.45.65,3.83c0,2.39-.59,4.42-1.77,6.09-1.18,1.67-2.87,2.93-5.06,3.79-2.2.86-4.83,1.29-7.91,1.29Z"/><path class="cls-1" d="M583.22,140.22v-36.36h26.21v7.96h-16.35v6.15h14.98v7.76h-14.98v6.54h16.25v7.96h-26.11Z"/><path class="cls-1" d="M614.25,140.22v-36.36h15.67c2.7,0,5.06.49,7.09,1.48,2.03.98,3.6,2.4,4.73,4.25,1.13,1.85,1.7,4.06,1.7,6.63s-.58,4.8-1.73,6.59c-1.16,1.79-2.77,3.14-4.86,4.05-2.08.91-4.51,1.37-7.27,1.37h-9.37v-7.66h7.37c1.17,0,2.17-.15,3-.44.83-.29,1.46-.76,1.9-1.39.44-.63.66-1.47.66-2.51s-.22-1.89-.66-2.54c-.44-.65-1.07-1.13-1.9-1.44-.83-.31-1.83-.46-3-.46h-3.46v28.45h-9.86ZM633.91,140.22l-8.88-16.69h10.49l9.13,16.69h-10.74Z"/><path class="cls-1" d="M657.89,140.22l-12.2-36.36h11.18l4.22,14.1c.91,3.06,1.75,6.17,2.51,9.33s1.5,6.37,2.22,9.63h-2.2c.68-3.25,1.38-6.46,2.1-9.63.71-3.16,1.51-6.28,2.39-9.33l4.03-14.1h11.03l-11.81,36.36h-13.47Z"/><path class="cls-1" d="M696.89,103.86v36.36h-9.86v-36.36h9.86Z"/><path class="cls-1" d="M718.87,140.71c-3.32,0-6.3-.72-8.94-2.15-2.64-1.43-4.73-3.53-6.27-6.31-1.54-2.77-2.31-6.17-2.31-10.19s.78-7.47,2.34-10.25c1.56-2.78,3.67-4.88,6.32-6.31,2.65-1.42,5.6-2.14,8.86-2.14,2.26,0,4.35.31,6.26.92,1.91.61,3.59,1.5,5.04,2.67s2.62,2.61,3.51,4.32c.89,1.71,1.46,3.66,1.68,5.86h-10.01c-.1-.78-.3-1.49-.62-2.12-.32-.63-.74-1.18-1.26-1.64-.52-.46-1.14-.81-1.87-1.05-.72-.24-1.54-.37-2.45-.37-1.64,0-3.04.4-4.18,1.21-1.15.81-2.01,1.96-2.6,3.47-.58,1.5-.88,3.31-.88,5.43s.3,4.07.9,5.56c.6,1.5,1.47,2.62,2.6,3.37,1.13.75,2.5,1.12,4.11,1.12.91,0,1.72-.12,2.44-.37.72-.24,1.34-.59,1.88-1.05.54-.46.97-1,1.31-1.64.33-.63.56-1.34.67-2.12h10.01c-.11,1.55-.54,3.12-1.28,4.73-.74,1.61-1.8,3.1-3.17,4.47-1.38,1.37-3.07,2.47-5.08,3.31-2.01.84-4.35,1.26-7.02,1.26Z"/><path class="cls-1" d="M739.74,140.22v-36.36h26.21v7.96h-16.35v6.15h14.98v7.76h-14.98v6.54h16.25v7.96h-26.11Z"/><path class="cls-1" d="M785.55,140.66c-3.16,0-5.91-.47-8.26-1.4-2.35-.94-4.18-2.38-5.48-4.33-1.3-1.95-1.96-4.45-1.98-7.49h9.37c.07,1.11.35,2.04.84,2.81s1.2,1.34,2.1,1.73c.9.39,1.99.59,3.26.59,1.06,0,1.94-.13,2.66-.39.72-.26,1.26-.62,1.62-1.09.37-.46.55-1,.55-1.6,0-.55-.17-1.04-.52-1.45s-.92-.79-1.72-1.13-1.87-.65-3.22-.93l-3.66-.78c-3.21-.68-5.73-1.85-7.58-3.5s-2.77-3.9-2.77-6.75c0-2.31.63-4.33,1.88-6.06,1.25-1.73,2.98-3.08,5.19-4.05s4.75-1.45,7.63-1.45,5.49.49,7.63,1.48c2.14.98,3.79,2.37,4.95,4.15s1.75,3.86,1.77,6.23h-9.47c-.08-1.19-.52-2.11-1.31-2.77-.79-.66-1.98-.99-3.58-.99-1.01,0-1.84.12-2.49.35-.65.24-1.13.57-1.44.99-.31.42-.46.9-.46,1.44,0,.57.17,1.07.5,1.5.33.43.86.81,1.59,1.12.72.32,1.66.6,2.79.84l2.98.63c2,.42,3.72.98,5.16,1.68,1.44.7,2.62,1.52,3.54,2.45s1.59,1.99,2.03,3.16c.43,1.17.65,2.45.65,3.83,0,2.39-.59,4.42-1.77,6.09-1.18,1.67-2.87,2.93-5.06,3.79-2.2.86-4.83,1.29-7.91,1.29Z"/></svg>